<?xml version="1.0" encoding="UTF-8"?>
<svg id="Layer_1" data-name="Layer 1" xmlns="http://www.w3.org/2000/svg" xmlns:xlink="http://www.w3.org/1999/xlink" viewBox="0 0 3201.44 3689.32">
  <defs>
    <style>
      .cls-1 {
        fill: url(#linear-gradient-2);
      }

      .cls-2 {
        fill: #cd752f;
      }

      .cls-3 {
        fill: url(#linear-gradient-4);
      }

      .cls-4 {
        fill: url(#linear-gradient-3);
      }

      .cls-5 {
        fill: url(#linear-gradient-5);
      }

      .cls-6 {
        fill: #dcd87c;
      }

      .cls-7 {
        fill: #591909;
      }

      .cls-8 {
        font-family: MyriadPro-Regular, 'Myriad Pro';
        font-size: 320px;
      }

      .cls-9 {
        fill: #b3958b;
      }

      .cls-10 {
        fill: #f4a635;
      }

      .cls-11 {
        fill: url(#linear-gradient-6);
      }

      .cls-12 {
        fill: #fefefe;
      }

      .cls-13 {
        fill: #f8ba17;
      }

      .cls-14 {
        fill: url(#linear-gradient);
      }

      .cls-15 {
        fill: #e46024;
      }

      .cls-16 {
        fill: #af3b0d;
      }

      .cls-17 {
        fill: #8da126;
      }
    </style>
    <linearGradient id="linear-gradient" x1="1137.57" y1="2194.41" x2="1236.72" y2="2284.58" gradientTransform="translate(-2876.39 13098.65) scale(4.88 -4.88)" gradientUnits="userSpaceOnUse">
      <stop offset="0" stop-color="#6f921f"/>
      <stop offset="1" stop-color="#c2bd2f"/>
    </linearGradient>
    <linearGradient id="linear-gradient-2" x1="896.32" y1="2266.49" x2="906.39" y2="2199.01" gradientTransform="translate(-2876.39 13098.65) scale(4.88 -4.88)" gradientUnits="userSpaceOnUse">
      <stop offset="0" stop-color="#f68d17"/>
      <stop offset="1" stop-color="#ee6a1b"/>
    </linearGradient>
    <linearGradient id="linear-gradient-3" x1="871.78" y1="2250.81" x2="865.12" y2="2262.59" gradientTransform="translate(-2876.39 13098.65) scale(4.88 -4.88)" gradientUnits="userSpaceOnUse">
      <stop offset="0" stop-color="#fce431"/>
      <stop offset="1" stop-color="#fcf786"/>
    </linearGradient>
    <linearGradient id="linear-gradient-4" x1="914.14" y1="2199.54" x2="906.56" y2="2252.31" gradientTransform="translate(-2876.39 13098.65) scale(4.88 -4.88)" gradientUnits="userSpaceOnUse">
      <stop offset="0" stop-color="#f3ae00"/>
      <stop offset="1" stop-color="#fcee47"/>
    </linearGradient>
    <linearGradient id="linear-gradient-5" x1="912.5" y1="2247.86" x2="914.89" y2="2189.74" gradientTransform="translate(-2876.39 13098.65) scale(4.88 -4.88)" gradientUnits="userSpaceOnUse">
      <stop offset="0" stop-color="#f89414"/>
      <stop offset="1" stop-color="#ee6919"/>
    </linearGradient>
    <linearGradient id="linear-gradient-6" x1="928.32" y1="2207.17" x2="922.95" y2="2230.4" gradientTransform="translate(-2876.39 13098.65) scale(4.88 -4.88)" gradientUnits="userSpaceOnUse">
      <stop offset="0" stop-color="#f6c20d"/>
      <stop offset="1" stop-color="#fbf56a"/>
    </linearGradient>
  </defs>
  <path class="cls-13" d="M1018.99,2182.21l11.43,20.73c-20.54,9.95-40.66,17.83-58.42,32.61,2.23-17.19,34.34-41.65,46.99-53.34Z"/>
  <path class="cls-10" d="M1133.89,2210.68c73.03-96.38,170.4-156.24,284.09-194.27l3.48,8.61c-74.04,17.19-136.95,58.07-194.62,105.74-12.97,10.72-27.22,21.13-38.75,33.32-15.62,7.61-30.05,26.95-41.28,39.89-4.13,3.18-7.46,6.55-12.92,6.72Z"/>
  <path class="cls-17" d="M2589.33,2241.82c-.12,4.25-.43,8.42-.62,12.65-.21,4.69,1.21,8.47,2.74,12.81,2.8,2.55,5.45,4.71,8.52,6.94,6.78,4.92,14.22,14.51,15.09,23.06.31,3,.04,6.18.05,9.19.01,2.94.46,4.52,1.88,7.07-31.78,24.38-63.51,49.94-92.57,77.51,14.77-51.66,35.95-103.95,64.9-149.24Z"/>
  <path class="cls-17" d="M2650.91,2342.94l7.12,20.4c12.33,8.45,22.92,18.55,34.92,27.37,17.15,12.6,35.41,23.47,53.32,34.93,7.79,4.98,24.55,8.56,33.73,8.01l.24,3.74c-70.7,14.97-155.74,1.61-226.49-10,31.59-29.07,63.98-57.21,97.17-84.44Z"/>
  <path class="cls-16" d="M2459.18,3093.38c15.36-.54,32.07,3.92,45.19,11.85,1.06.63,2.11,1.28,3.14,1.97,1.03.68,2.04,1.39,3.03,2.13.99.74,1.96,1.5,2.91,2.29.95.79,1.88,1.6,2.79,2.44.91.84,1.8,1.69,2.66,2.58.87.88,1.71,1.79,2.52,2.71.82.93,1.61,1.87,2.37,2.84.77.97,1.51,1.96,2.22,2.96.72,1.01,1.41,2.03,2.07,3.08.66,1.04,1.3,2.1,1.9,3.18s1.18,2.17,1.73,3.27c.55,1.11,1.07,2.23,1.56,3.36.49,1.13.95,2.28,1.38,3.44.43,1.16.83,2.33,1.2,3.51.37,1.18.7,2.37,1.01,3.57.31,1.2.58,2.4.83,3.61.48,2.39.83,4.79,1.07,7.21.24,2.42.36,4.85.36,7.28s-.12,4.86-.36,7.28c-.24,2.42-.59,4.82-1.07,7.21-.47,2.39-1.06,4.74-1.77,7.07-.71,2.33-1.52,4.61-2.46,6.86-.93,2.25-1.97,4.44-3.12,6.59-1.15,2.14-2.39,4.23-3.75,6.25-13.09,19.39-31.63,28.2-53.96,32.03-15.22-.47-29.37-3.18-42.67-11.05-2.16-1.28-4.26-2.66-6.28-4.15-2.03-1.49-3.98-3.07-5.84-4.75-1.87-1.68-3.65-3.45-5.33-5.31-1.69-1.86-3.28-3.8-4.78-5.82-1.49-2.02-2.88-4.11-4.17-6.27-1.29-2.16-2.46-4.38-3.53-6.65-1.07-2.28-2.01-4.6-2.84-6.97-.83-2.37-1.54-4.78-2.13-7.22-4.58-19.35-.39-39.49,10.79-55.85,12.95-18.94,31.36-28.11,53.33-32.52Z"/>
  <path class="cls-2" d="M1030.42,2202.94c20.89,37.35,39.2,76.3,58.58,114.46,11.98,23.57,26.94,48.04,36.06,72.82-47.21-9.87-147.25-28.8-182.99-58.45-6.32-5.24-11.81-11.95-12.42-20.47-2.08-28.9,24.85-55.7,42.35-75.75,17.76-14.79,37.88-22.66,58.42-32.61Z"/>
  <path class="cls-15" d="M745.66,3087.45c16.05.71,29.68,4.53,42.73,14.29,17.43,13.05,28.66,34.1,30.82,55.66,2.22,22.15-5.81,44.8-20,61.72-14.92,17.78-33.37,25.95-56.09,28.17-17.75-.88-31.87-4.02-46.55-14.71-1.08-.8-2.15-1.62-3.19-2.47-1.04-.85-2.06-1.73-3.06-2.63-1-.9-1.97-1.83-2.92-2.78-.95-.95-1.88-1.93-2.78-2.93-.9-1-1.78-2.02-2.63-3.06-.85-1.04-1.68-2.11-2.47-3.2-.8-1.08-1.56-2.19-2.3-3.31-.74-1.13-1.45-2.27-2.13-3.43-.68-1.16-1.33-2.34-1.95-3.53-.62-1.2-1.21-2.4-1.78-3.63-.56-1.22-1.09-2.46-1.59-3.71-.5-1.25-.96-2.51-1.4-3.79-.43-1.27-.83-2.56-1.2-3.85-.37-1.29-.7-2.6-1-3.91-.3-1.31-.57-2.63-.81-3.96-.24-1.33-.44-2.66-.61-3.99-2.93-21.76,2.66-44.12,16.58-61.25,16.91-20.8,38.71-27.47,64.34-29.71Z"/>
  <path class="cls-13" d="M2105.39,1993.46c67.9,48.17,153.33,138,167.75,223.16,3.2,18.88,2.17,38.35-9.06,54.5-8.32,11.97-20.06,21.06-31.57,29.75-.63-3.7-1.37-7.25-2.44-10.86-19.78-66.8-91.64-164.03-152.9-197.77,9.32-32.97,18.13-66.02,28.22-98.78Z"/>
  <path class="cls-2" d="M358.21,2492.28c43.3,10.06,85.41,14.95,129.71,17.11,70.13,126.33,124.08,203.11,224.32,308.2l-20.64,2.82c-35.44,5.74-70.76,11.92-105.69,20.32-11.88-12.76-23.47-25.77-34.79-39.02-11.32-13.26-22.35-26.75-33.1-40.47-10.74-13.73-21.19-27.68-31.34-41.85-10.15-14.17-19.99-28.55-29.53-43.14-9.53-14.59-18.75-29.38-27.66-44.36-8.9-14.99-17.48-30.15-25.74-45.5-8.26-15.35-16.18-30.87-23.78-46.56-7.6-15.69-14.85-31.53-21.77-47.53Z"/>
  <path class="cls-2" d="M2843.27,2491.72l1.76,1.71c-4.41,17.56-15.82,36.22-23.8,52.51-12.71,26.17-26.25,51.91-40.63,77.2-14.38,25.29-29.57,50.09-45.56,74.4-16,24.31-32.76,48.06-50.3,71.28-17.54,23.21-35.81,45.83-54.82,67.86-35.91-3.39-72.4-13.51-108.24-19.26l-28.21-5.06c90.5-98.4,154.69-184.51,217.85-303.09,44.93-2.14,88.06-7.8,131.96-17.54Z"/>
  <path class="cls-13" d="M1510.96,1866.19c180.15,21.82,341.93-19.44,512.8,69.7-25.73,64.06-54.99,128.95-76.44,194.45-9-8.59-18.03-17.21-27.82-24.9-99.52-78.12-242.39-98.98-364.77-84.24-4.42-6.3-11.42-8.25-18.68-9.7-34.07-6.82-82.3,2.88-114.6,13.53l-3.48-8.61c88.31-30.46,210.05-42.62,302.62-32.09,42.56,4.84,84.62,15.63,126.37,25.01-55.84-38.89-186.65-67.13-254.87-77.93-23.68-3.75-51.57-3.27-74.27-10.41l2.89-2.2c98.7,8.67,201.68,30.31,293.05,69.26,18.48,7.88,35.63,18.44,53.76,27.02,32.79,15.52,65.66,29.82,96.26,49.62l3,1.96c2.24-4.23,4.42-8.49,6.52-12.78,3.13-6.5,12.83-23.07,9.15-29.66-7.93-14.19-37.88-25.67-52.72-33.07-84.2-41.95-172.34-70.54-264.22-90.5-34.59-7.51-124.47-19.34-151.07-32.61-1.17-.59-2.32-1.22-3.48-1.83Z"/>
  <path class="cls-2" d="M714.66,2462.14c4.74,2.83,65.05,93.7,75.65,107.4,59.17,76.43,130.55,141.35,198.57,209.49-50.47,4.4-100.38,11.09-150.45,18.75-11.82,2.59-23.93,4.08-35.88,5.91-20.72-18.86-39.76-40.06-58.89-60.52-69.01-73.78-127.97-151.02-176.76-239.65,51.3-8.37,100.53-18.74,147.76-41.39Z"/>
  <path class="cls-10" d="M2470.66,2485.9c53.85,4.32,110.45,10.76,163.46,20.72-54.66,106.72-136.08,207.81-222.35,290.46l-47.19-6.18c-15.18-3.88-33.22-4.61-48.88-6.68l-120.63-14.84c111.31-85.05,196.29-167.17,275.59-283.47Z"/>
  <path class="cls-10" d="M1408.57,173.23c-1.19,10.94-24.73,48.85-31.26,62.36-54.07,111.92-75.91,220.44-63.5,344.42,17.85,178.3,99.48,302.89,239.78,408.81,88.86,67.08,178.27,125.23,216.9,235.79l-26.82-29.81c-96.94-110.83-242.82-143.74-349.74-242.49-86.71-80.09-136.07-195.93-140.3-313.27-5.64-156.27,47.63-349.75,154.94-465.81Z"/>
  <path class="cls-7" d="M823.88,1452.48c31.61,43.05,53.44,95.35,81.08,141.3,34.1,56.7,66.98,114.56,101.9,170.69,23.09,37.13,50.78,73.74,69.47,113.22,14.56,30.75,35,75.28,29.74,110.37-3.08,20.52-13.3,37.86-25.77,53.99-13.35,17.27-30.98,34.17-38.08,55.22-2.35,6.99-3.47,14.77-2.35,22.11,5.55,36,43.71,102.62,61.26,136.71l3.49,6.49c25.01,46.68,50.06,93.21,78.05,138.2-19.24-2.83-38.47-7.03-57.6-10.56-9.12-24.78-24.08-49.25-36.06-72.82-19.39-38.15-37.69-77.11-58.58-114.46l-11.43-20.73c-11.2-23-23.41-46-49.46-54.63-14.52-4.81-29.77-3.93-44.8-3.06-61.99,3.59-93.27-3.23-124.45-61.72-41.33-77.53-69.71-174.63-99.28-258.08-29.11-82.17-62.07-164.81-86.45-248.42l1.68,2.51c25.46,38.41,43.48,85.35,63.17,127.08l107.9,226.68c8.53,18.06,17.49,36.07,25.42,54.39,4.67,10.79,8.33,22.43,13.7,32.86,2.93,5.7,5.73,8.62,11.83,10.89,5.25-.77,5.93-.87,9.9-4.32,1.2-5.57.64-9.62-1.07-14.95-4.21-13.07-11.42-25.74-16.86-38.41-10.81-25.37-21.42-50.82-31.82-76.36-29.77-75.68-59.08-151.54-87.91-227.58-14.67-37.8-34.43-78.05-42.54-117.73,28.21,44.56,49.7,95.66,72.16,143.41l100.07,214.23c16.52,35.49,31.86,71.57,49.64,106.45,7.27-4.81,14.68-9.49,21.69-14.66-41.94-97.73-82.46-196.04-121.54-294.94-24.05-60.08-49.07-119.44-69.37-180.94l1.99,2.98c30.41,45.87,53,100.84,77.7,150.18,33.06,66.05,68.49,130.92,101.26,197.11,14.47,29.24,34.37,83,54.34,106.38,4.32-.68,4.17-2.11,6.75-5.43,1.03-6.9-.07-11.64-2.62-18.01-5.11-12.74-12.6-24.66-18.39-37.12-10.21-22.01-19.59-44.51-29.06-66.85-26.82-63.27-50.55-127.96-76.39-191.65-21.86-53.9-46.89-110.79-59.95-167.51,30.13,55.06,55.64,113.92,82.19,170.85,45.7,98.58,92.47,196.64,140.31,294.2,7.26-4.62,14.74-9.06,21.77-14.02l-113.06-274.19c-27.93-65.89-59.69-131.99-83.56-199.33Z"/>
  <path class="cls-14" d="M2589.33,2241.82c13.37-25.42,30.97-48.25,49.27-70.27,4.2-5.15,8.49-10.23,12.88-15.23,4.39-4.99,8.87-9.91,13.43-14.74,4.57-4.83,9.22-9.58,13.96-14.24,4.74-4.66,9.56-9.24,14.47-13.73,4.91-4.49,9.9-8.88,14.97-13.18,5.07-4.31,10.21-8.52,15.44-12.63,5.22-4.12,10.52-8.14,15.89-12.06,5.37-3.92,10.81-7.74,16.32-11.47,5.51-3.72,11.08-7.34,16.73-10.86,5.64-3.52,11.35-6.93,17.12-10.24,5.77-3.31,11.59-6.51,17.47-9.61,5.89-3.1,11.82-6.08,17.82-8.97,5.99-2.88,12.04-5.65,18.13-8.3,6.1-2.66,12.24-5.21,18.42-7.64,6.19-2.43,12.42-4.75,18.69-6.96,6.27-2.21,12.58-4.3,18.93-6.27,95.6-29.85,203.46-36,302.17-18.24-33.66,154.47-91.66,299.61-231.02,388.54-56.42,36-123.88,61.3-190.19,71.66l-.24-3.74c-9.18.56-25.93-3.02-33.73-8.01-17.91-11.45-36.17-22.33-53.32-34.93-11.99-8.82-22.59-18.92-34.92-27.37l-7.12-20.4c82.52-68.98,177.77-129.82,275.44-174.87,31.45-14.5,63.95-26.58,95.98-39.67-21.71,1.66-48.86,13.09-69.67,20-122.53,40.66-229.19,91.71-335.65,165.14-1.42-2.55-1.87-4.13-1.88-7.07-.01-3.01.26-6.2-.05-9.19-.87-8.54-8.31-18.13-15.09-23.06-3.07-2.23-5.73-4.39-8.52-6.94-1.53-4.34-2.95-8.11-2.74-12.81.19-4.23.5-8.4.62-12.65Z"/>
  <path class="cls-2" d="M1195.59,540.64c2.84,18.1-2.25,41.97-3.18,60.58-1.04,20.8-.22,41.51.79,62.28-39.27,16.18-79.41,29.33-118.26,46.77-18.51,8.33-36.8,17.1-54.89,26.32-18.08,9.22-35.94,18.86-53.56,28.94-17.62,10.07-34.99,20.57-52.1,31.48-17.11,10.92-33.95,22.24-50.52,33.96-16.57,11.73-32.84,23.85-48.82,36.36-15.98,12.51-31.65,25.41-47.01,38.68-15.36,13.27-30.39,26.9-45.09,40.9-14.7,14-29.06,28.34-43.06,43.02-6.01,6.33-11.95,12.72-17.83,19.17-5.88,6.45-11.7,12.96-17.44,19.52-5.75,6.57-11.43,13.19-17.05,19.87-5.62,6.68-11.16,13.42-16.64,20.21-5.48,6.8-10.89,13.64-16.23,20.54-5.34,6.9-10.62,13.86-15.82,20.87-5.2,7.01-10.33,14.07-15.39,21.18-5.06,7.11-10.05,14.27-14.96,21.49-4.91,7.21-9.75,14.48-14.52,21.79-4.77,7.31-9.46,14.67-14.08,22.07-4.62,7.41-9.17,14.86-13.63,22.35-4.47,7.5-8.87,15.04-13.18,22.62-4.32,7.59-8.56,15.22-12.73,22.89-4.16,7.67-8.25,15.38-12.26,23.13-4.01,7.76-7.94,15.55-11.79,23.38-3.85,7.83-7.62,15.7-11.31,23.61-3.69,7.91-7.3,15.86-10.84,23.84-3.53,7.98-6.99,16-10.36,24.05-3.37,8.05-6.66,16.13-9.87,24.25-3.21,8.12-6.33,16.27-9.38,24.45-3.04,8.18-6,16.39-8.88,24.63-2.88,8.24-5.67,16.51-8.38,24.81-2.71,8.3-5.34,16.62-7.88,24.97-2.54,8.35-5,16.72-7.38,25.12-2.37,8.4-4.66,16.82-6.87,25.26-2.2,8.45-4.32,16.91-6.35,25.4-2.03,8.49-3.98,17-5.84,25.52-1.86,8.53-3.64,17.07-5.33,25.63-1.69,8.56-3.29,17.14-4.81,25.74-1.52,8.59-2.95,17.2-4.29,25.83-1.34,8.62-2.6,17.26-3.77,25.91-1.17,8.65-2.25,17.31-3.25,25.98-7.06,63.12-8.13,126.42-6.62,189.85-30.15-8.34-60.69-14.91-91.61-19.71l-21.14-2.23c-2.98-232.95,53.25-457.65,158.15-665.05,169.48-335.11,470.06-581.59,825.26-698.27Z"/>
  <path class="cls-17" d="M88.99,1969.07c96.68-9.94,215.09,13.7,301.11,55.92,106.78,52.41,196.78,148.72,250.1,254.67,19.74,39.22,34.02,80.14,48.14,121.62-119.09-108.18-224.97-172.69-375.32-230.58-39.23-15.1-79.48-31.49-120.43-41.33,20.13,10.33,42.64,18.11,63.62,26.72,112.9,49.47,213.94,114.49,309.83,191.6,27.13,21.81,55.13,43.67,79.26,68.83-16.1,4.99-32.39,9.2-48.9,12.63-128.23,25.71-265.28,1.87-374.06-71.76C88.61,2266.9,29.72,2129.79,0,1976.91c28.94-5.41,59.64-5.87,88.99-7.85Z"/>
  <path class="cls-2" d="M1887.2,510.15c43.74,7.64,88.52,21.53,130.7,35.34,12.98,4.23,25.9,8.64,38.76,13.23,12.86,4.6,25.64,9.38,38.36,14.34,12.72,4.97,25.36,10.12,37.93,15.45,12.57,5.33,25.06,10.84,37.47,16.54,12.41,5.69,24.73,11.56,36.97,17.61,12.24,6.05,24.39,12.27,36.44,18.67,12.06,6.4,24.03,12.97,35.9,19.71,11.87,6.75,23.64,13.66,35.31,20.75,11.67,7.08,23.24,14.34,34.69,21.76,11.46,7.42,22.81,15,34.05,22.75,11.24,7.75,22.37,15.66,33.38,23.72,11.01,8.07,21.91,16.29,32.68,24.68,10.77,8.38,21.43,16.92,31.95,25.61,10.53,8.69,20.93,17.53,31.2,26.53,10.27,8.99,20.42,18.13,30.43,27.41,10.01,9.28,19.88,18.71,29.62,28.28,9.96,9.84,19.78,19.83,29.44,29.96,9.66,10.13,19.18,20.4,28.54,30.82,9.36,10.41,18.57,20.96,27.62,31.65,9.05,10.69,17.94,21.5,26.68,32.45,8.73,10.95,17.3,22.02,25.71,33.22,8.41,11.2,16.64,22.52,24.72,33.97,8.07,11.44,15.97,23,23.7,34.68,7.73,11.68,15.29,23.46,22.67,35.36,7.38,11.9,14.59,23.91,21.62,36.02,7.03,12.11,13.88,24.33,20.54,36.64,6.67,12.32,13.15,24.73,19.46,37.23,6.3,12.51,12.42,25.1,18.35,37.79,5.93,12.69,11.67,25.46,17.22,38.31s10.92,25.79,16.09,38.8c5.17,13.02,10.15,26.1,14.93,39.26,4.79,13.16,9.38,26.39,13.77,39.69,17.11,50.45,32.9,101.27,43.69,153.49,20.75,100.4,28.57,201.1,28.91,303.45l-20.97,2.15c-30.67,5.37-60.88,12.64-90.64,21.82.71-175.36-23.41-351.02-91.15-513.96-132.73-319.26-339.11-550.22-651.85-702.31-34.17-16.53-69.13-31.16-104.89-43.9-22.76-8.1-46.28-14.9-68.56-24.21l-1.98-.84c-30.88-40.94-58.36-87.18-79.47-133.91Z"/>
  <path class="cls-7" d="M2023.76,1935.89c19.58-48.54,35.58-98.65,53.34-147.89,48.74-135.13,101.12-274.58,117.67-418.03,2.09-16.72,3.52-33.5,4.28-50.33.76-16.83.85-33.67.28-50.51-.58-16.84-1.82-33.63-3.72-50.37-1.91-16.74-4.47-33.38-7.7-49.92-1.37-7.12-6.82-19.11,1.93-22.03,23.57-7.87,61.19,7.65,80.46,20.66,61.49,41.48,88.71,118.25,101.46,187.92,21.41,117-6.92,280.57-75.25,378.11-20.61,29.41-46.63,54.07-73.38,77.79-65.56,58.13-89.28,98.36-117.72,182.19-10.09,32.76-18.9,65.81-28.22,98.78,61.26,33.74,133.12,130.97,152.9,197.77,1.07,3.61,1.81,7.16,2.44,10.86-23.23,13.92-47.14,24.54-72.29,34.46-18.45,7.05-37.07,13.62-55.86,19.7-20.9,5.49-41.69,11.36-62.37,17.6l-18.3,4.89-58.82,13.53c20.96-186.73,73.77-378.46,162.64-544.76-15.01,17.94-29.05,36.61-42.12,55.99-13.08,19.39-25.12,39.4-36.13,60.04-51.63,95.84-90.87,203.09-125.33,306.23-14.77,44.22-30.4,88.89-38.05,134.99l-31.9,3.37c4.66-12.69,8.16-26.03,12.1-38.97,9.57-35.17,21.62-69.91,31.97-104.89l10-29.47,39.27-103.24c21.45-65.5,50.71-130.38,76.44-194.45Z"/>
  <path class="cls-13" d="M2029.92,2330.53c9.38,13.46,7.65,27.37,12.08,42.1l-18.3,4.89c2.51-15.56,3.78-31.37,6.22-46.99Z"/>
  <path class="cls-2" d="M2048.56,2218.95c27.18,36.72,45.11,91.67,55.81,136.09-20.9,5.49-41.69,11.36-62.37,17.6-4.42-14.73-2.69-28.65-12.08-42.1-1.14-28.02,13.76-80.87,18.64-111.58Z"/>
  <path class="cls-13" d="M2066.18,2143.43c52.94,45.33,78.75,126.33,94.05,191.91-18.45,7.05-37.07,13.62-55.86,19.7-10.7-44.42-28.63-99.37-55.81-136.09,5.18-25.34,11.06-50.51,17.62-75.52Z"/>
  <path class="cls-12" d="M2233.41,1186.79c9.7,3.65,18.12,9.7,25.66,16.77,54.14,50.83,78.53,151.85,80.37,223.43,3.21,124.56-40.86,245.14-126.26,335.65-6.3,6.28-12.96,11.21-20.19,16.33,51.88-57.96,86.24-124.81,104.81-200.48,33.39-135.98,7.65-272.85-64.39-391.7Z"/>
  <path class="cls-2" d="M2077.17,2092.24c61.26,33.74,133.12,130.97,152.9,197.77,1.07,3.61,1.81,7.16,2.44,10.86-23.23,13.92-47.14,24.54-72.29,34.46-15.3-65.59-41.11-146.58-94.05-191.91,2.63-17.12,7.23-34.26,10.99-51.18Z"/>
  <path class="cls-10" d="M2025.71,742.41c175.52,61.41,330.33,174.5,456.86,308.95,5.2,5.64,10.35,11.32,15.45,17.05,5.1,5.73,10.14,11.51,15.13,17.34,4.99,5.82,9.92,11.7,14.8,17.61,4.88,5.92,9.7,11.88,14.47,17.88,4.77,6.01,9.48,12.06,14.14,18.15,4.65,6.1,9.25,12.23,13.8,18.41,4.54,6.18,9.03,12.4,13.46,18.66,4.43,6.26,8.79,12.57,13.1,18.91,4.31,6.34,8.56,12.73,12.75,19.15,4.19,6.42,8.32,12.89,12.39,19.39,4.07,6.5,8.08,13.04,12.03,19.61,3.95,6.57,7.84,13.18,11.66,19.83,3.83,6.65,7.59,13.33,11.29,20.05,3.7,6.72,7.34,13.47,10.92,20.25,3.58,6.78,7.09,13.6,10.54,20.45,3.45,6.85,6.83,13.73,10.16,20.64,3.32,6.91,6.58,13.86,9.77,20.83,3.19,6.97,6.32,13.97,9.38,21.01,3.06,7.03,6.06,14.09,8.99,21.18,2.93,7.09,5.8,14.2,8.6,21.34,2.8,7.14,5.53,14.31,8.2,21.5,2.66,7.19,5.26,14.41,7.79,21.65,2.53,7.24,5,14.5,7.39,21.79,2.4,7.29,4.72,14.59,6.99,21.92,2.26,7.33,4.45,14.68,6.57,22.05,2.13,7.37,4.18,14.76,6.17,22.17,1.98,7.41,3.9,14.83,5.75,22.28,1.85,7.44,3.63,14.9,5.34,22.38,1.71,7.48,3.35,14.97,4.92,22.47,1.57,7.51,3.07,15.03,4.5,22.56,1.43,7.54,2.79,15.09,4.08,22.64,1.29,7.56,2.51,15.13,3.66,22.72,12.25,84.83,13.87,168.8,11.34,254.3-27.33,13.5-53.89,28.37-79.69,44.62-32.05,20.18-60.47,44.05-87.92,70.01,37.26-225.39,14.24-453.38-87.12-660.04-82.65-168.51-215.36-321.53-372.56-424.11-28.14-18.36-60.37-40.08-92.18-50.96-11.22-71.84-26.92-132.81-62.92-196.66Z"/>
  <path class="cls-6" d="M1203.4,739.73c6.91,7.93,14.26,44.11,17.92,55.75,9.82,31.21,22.71,60.94,37.65,90-23.59,13.11-51.58,20.73-76.71,30.79-28.23,11.31-55.91,25.38-82.83,39.51-181.04,95.02-332.65,251.97-426.56,433.02-111.37,214.69-145.12,492.71-71.79,724.62-14.92-20.92-31.67-38.64-49.96-56.57-43.62-43.47-93.01-74.51-147.9-101.65-1.33-43.83-3.71-87.31-2.12-131.2.81-19.52,2.09-39.01,3.84-58.47,1.75-19.46,3.97-38.86,6.66-58.21,2.69-19.35,5.85-38.63,9.47-57.82,3.62-19.2,7.71-38.3,12.25-57.3,4.55-19,9.55-37.88,15.01-56.64,5.46-18.76,11.37-37.38,17.73-55.85,6.36-18.47,13.16-36.78,20.41-54.93,7.25-18.14,14.93-36.1,23.04-53.87,111.38-245.3,316.16-453.24,556.21-573.82,44.61-22.41,90.98-39.89,137.68-57.36Z"/>
  <path class="cls-1" d="M1421.46,2025.02c32.3-10.65,80.53-20.34,114.6-13.53,7.26,1.45,14.27,3.4,18.68,9.7,122.38-14.74,265.26,6.12,364.77,84.24,9.79,7.69,18.82,16.31,27.82,24.9l-39.27,103.24-10,29.47c-10.35,34.98-22.4,69.73-31.97,104.89-3.94,12.94-7.44,26.28-12.1,38.97-118.76,15.23-235.87,22.91-355.61,22.13-47.53-.31-96.97-.85-144.25-5.94-25.25-3.25-50.76-5.41-76.07-8.22l-22.13-3.06c-24.2-4.45-48.92-7.38-73.27-11.03-27.99-44.99-53.05-91.52-78.05-138.2l-3.49-6.49c11.11-15.03,21.35-30.57,32.77-45.41,5.46-.17,8.79-3.54,12.92-6.72,11.23-12.94,25.66-32.28,41.28-39.89,11.53-12.19,25.78-22.6,38.75-33.32,57.66-47.66,120.58-88.54,194.62-105.74Z"/>
  <path class="cls-13" d="M1133.89,2210.68c5.46-.17,8.79-3.54,12.92-6.72l-3.35,10.36,1.74,1,11.11-5.83c-16.85,17.22-33.51,37.54-51.71,53.08l-3.49-6.49c11.11-15.03,21.35-30.57,32.77-45.41Z"/>
  <path class="cls-6" d="M1188.09,2164.07c18.22.46,45.43-47.04,94.48-45.38-44.88,27.21-86.16,56.85-126.25,90.8l-11.11,5.83-1.74-1,3.35-10.36c11.23-12.94,25.66-32.28,41.28-39.89Z"/>
  <path class="cls-4" d="M1421.46,2025.02c32.3-10.65,80.53-20.34,114.6-13.53,7.26,1.45,14.27,3.4,18.68,9.7-101.02,19.2-180.61,50.21-272.17,97.5-49.05-1.66-76.25,45.85-94.48,45.38,11.53-12.19,25.78-22.6,38.75-33.32,57.66-47.66,120.58-88.54,194.62-105.74Z"/>
  <path class="cls-3" d="M1266.82,2341.5c7.6-41.91,32.04-84.55,58.86-117.08,62.72-76.06,155.95-120.02,253.46-129.21,94.73-8.93,192.48,17.03,266.24,78.13,21.85,18.1,39.08,41.23,61.01,58.94.54.44,1.1.87,1.65,1.3l-10,29.47c-1.81-2.37-3.64-4.72-5.51-7.05-1.86-2.32-3.76-4.63-5.68-6.91-1.92-2.28-3.87-4.54-5.85-6.77-1.98-2.23-3.98-4.44-6.01-6.62-2.03-2.18-4.09-4.34-6.18-6.47-2.08-2.13-4.19-4.24-6.33-6.32-2.14-2.08-4.3-4.13-6.48-6.16-2.19-2.03-4.4-4.03-6.63-6-2.24-1.97-4.49-3.92-6.78-5.84-2.28-1.92-4.59-3.81-6.92-5.67-2.33-1.86-4.68-3.69-7.06-5.5-2.38-1.8-4.77-3.58-7.19-5.32-2.42-1.75-4.85-3.46-7.32-5.14-2.46-1.69-4.94-3.34-7.44-4.96-2.5-1.62-5.02-3.21-7.56-4.78-2.54-1.56-5.1-3.09-7.68-4.59-2.58-1.5-5.17-2.97-7.79-4.4-2.61-1.44-5.25-2.84-7.89-4.21-2.65-1.37-5.31-2.71-7.99-4.01-2.68-1.31-5.38-2.58-8.09-3.81-2.71-1.24-5.44-2.44-8.18-3.62-2.74-1.17-5.5-2.31-8.27-3.42-2.77-1.1-5.55-2.17-8.35-3.21-2.8-1.03-5.61-2.04-8.43-3-2.82-.97-5.65-1.9-8.5-2.79-2.84-.9-5.7-1.76-8.56-2.59-2.86-.83-5.74-1.62-8.62-2.37-2.88-.76-5.78-1.48-8.68-2.16-2.9-.69-5.81-1.34-8.73-1.95-2.92-.61-5.84-1.19-8.77-1.73-2.93-.54-5.87-1.05-8.82-1.52-2.94-.47-5.89-.9-8.85-1.3-92.02-12.37-178.27,11.77-251.52,68.47-53.4,41.34-89.9,90.07-115.04,152.61-5.56,23.62-10.87,46.62-12.31,70.93l-22.13-3.06c.46-23.05,3.73-48.33,10.89-70.31Z"/>
  <path class="cls-13" d="M1266.82,2341.5c4.38,19.63-10.84,39.84-3.19,60.09,3.97,3.75,4.19,3.88,9.61,4.57,7.95-15.36,6.23-42.11,13.58-60.7l3.56-1.52c-5.56,23.62-10.87,46.62-12.31,70.93l-22.13-3.06c.46-23.05,3.73-48.33,10.89-70.31Z"/>
  <path class="cls-5" d="M1290.38,2343.94c25.15-62.54,61.65-111.27,115.04-152.61,73.25-56.69,159.5-80.84,251.52-68.47,2.96.4,5.9.83,8.85,1.3,2.94.47,5.88.97,8.82,1.51,2.93.54,5.85,1.12,8.77,1.73,2.92.61,5.83,1.26,8.73,1.95,2.9.68,5.8,1.4,8.68,2.16,2.88.76,5.76,1.55,8.62,2.37,2.87.83,5.72,1.69,8.56,2.59,2.84.9,5.68,1.83,8.5,2.79,2.82.97,5.63,1.97,8.43,3,2.79,1.03,5.58,2.1,8.35,3.21,2.77,1.1,5.53,2.24,8.27,3.42,2.74,1.17,5.47,2.38,8.18,3.62,2.71,1.24,5.41,2.51,8.09,3.81,2.68,1.31,5.35,2.64,7.99,4.01,2.65,1.37,5.28,2.77,7.89,4.21,2.61,1.43,5.21,2.9,7.79,4.4,2.58,1.5,5.14,3.03,7.67,4.59,2.54,1.56,5.06,3.15,7.56,4.77,2.5,1.62,4.98,3.28,7.44,4.96,2.46,1.68,4.9,3.4,7.32,5.14,2.42,1.74,4.82,3.52,7.19,5.32,2.37,1.8,4.73,3.63,7.06,5.5,2.33,1.86,4.64,3.75,6.92,5.67,2.28,1.92,4.54,3.86,6.78,5.84,2.24,1.97,4.45,3.97,6.63,6,2.19,2.03,4.35,4.08,6.48,6.16,2.14,2.08,4.25,4.19,6.33,6.32,2.09,2.13,4.14,4.29,6.18,6.47,2.03,2.18,4.03,4.39,6.01,6.62,1.98,2.23,3.93,4.49,5.85,6.77,1.92,2.28,3.82,4.58,5.68,6.91,1.86,2.33,3.7,4.68,5.51,7.05-10.35,34.98-22.4,69.73-31.97,104.89-19.01-29.36-39.78-59.66-68.86-80.02l-2.67,2.45c-18.49-2.01-40.75-18.17-58.3-26.09-18.92-8.54-38.1-15.18-58.45-19.26-42.78-8.57-88.47-11.62-131.92-6.7-16.33,1.85-36.02,8.25-52.13,7.11-1.2-.08-2.4-.21-3.6-.32-40.95,10.52-82.63,61.37-103.24,95.84-15.88,26.55-21.56,54-32.79,82.14-25.25-3.25-50.76-5.41-76.07-8.22,1.44-24.31,6.76-47.31,12.31-70.93Z"/>
  <path class="cls-11" d="M1490.16,2245.1c69.37-31.29,146.61-35.42,218.41-8.67,31.53,11.75,63.13,29.51,88.67,51.48l-2.67,2.45c-18.49-2.01-40.75-18.17-58.3-26.09-18.92-8.54-38.1-15.18-58.45-19.26-42.78-8.57-88.47-11.62-131.92-6.7-16.33,1.85-36.02,8.25-52.13,7.11-1.2-.08-2.4-.21-3.6-.32Z"/>
  <path class="cls-13" d="M1490.16,2245.1c1.2.1,2.4.23,3.6.32,16.12,1.14,35.81-5.26,52.13-7.11,43.44-4.92,89.13-1.87,131.92,6.7,20.35,4.08,39.53,10.72,58.45,19.26,17.55,7.93,39.81,24.08,58.3,26.09l2.67-2.45c29.07,20.36,49.85,50.66,68.86,80.02-3.94,12.94-7.44,26.28-12.1,38.97-118.76,15.23-235.87,22.91-355.61,22.13-47.53-.31-96.97-.85-144.25-5.94,11.23-28.14,16.91-55.59,32.79-82.14,20.61-34.47,62.29-85.32,103.24-95.84Z"/>
  <path class="cls-7" d="M2351.61,3175.83c2.73,3.49,2.17,4.57,1.37,9.1-3.25,18.23-11.34,37.3-18.27,54.38-44.89,110.58-129.95,210.28-224.43,282.38-5.38,4.07-10.82,8.07-16.3,12-5.48,3.94-11.01,7.81-16.59,11.6-5.58,3.8-11.2,7.53-16.87,11.19-5.67,3.66-11.38,7.26-17.14,10.78-5.76,3.52-11.55,6.97-17.39,10.36-5.84,3.38-11.72,6.69-17.64,9.93-5.92,3.24-11.88,6.41-17.88,9.5-6,3.09-12.03,6.11-18.1,9.06-6.07,2.95-12.18,5.82-18.32,8.62-6.14,2.79-12.31,5.52-18.52,8.16-6.21,2.65-12.45,5.21-18.72,7.71-6.27,2.5-12.57,4.91-18.91,7.25-6.33,2.34-12.68,4.6-19.07,6.79-6.39,2.18-12.8,4.29-19.23,6.32-6.44,2.03-12.9,3.98-19.38,5.85-6.48,1.87-12.99,3.66-19.52,5.37-6.53,1.71-13.08,3.34-19.64,4.89-6.57,1.55-13.15,3.02-19.76,4.42-6.6,1.39-13.22,2.7-19.86,3.93-6.64,1.23-13.28,2.38-19.95,3.45-6.67,1.07-13.34,2.05-20.03,2.96-6.69.9-13.39,1.73-20.09,2.47-6.71.74-13.43,1.4-20.15,1.98-6.72.58-13.45,1.07-20.19,1.49-6.74.41-13.48.74-20.22.99-6.75.25-13.49.41-20.24.5-6.75.08-13.5.08-20.24,0-6.75-.08-13.5-.24-20.24-.49-6.74-.24-13.48-.57-20.22-.98-6.73-.41-13.47-.9-20.19-1.47-6.72-.58-13.44-1.23-20.15-1.97-6.71-.74-13.41-1.56-20.1-2.46-7.02-.96-14.03-2-21.03-3.13-7-1.13-13.98-2.34-20.95-3.64-6.97-1.3-13.92-2.68-20.85-4.15-6.93-1.47-13.85-3.02-20.74-4.66-6.9-1.64-13.77-3.36-20.62-5.17-6.85-1.81-13.68-3.7-20.49-5.67-6.81-1.97-13.59-4.03-20.35-6.17-6.76-2.14-13.49-4.36-20.19-6.67-6.7-2.3-13.37-4.69-20.02-7.16-6.64-2.47-13.25-5.02-19.83-7.65-6.58-2.63-13.13-5.34-19.64-8.13-6.52-2.79-13-5.66-19.44-8.61s-12.85-5.98-19.22-9.09c-6.37-3.11-12.7-6.29-18.99-9.55-6.29-3.26-12.54-6.6-18.75-10.02-6.21-3.41-12.38-6.91-18.5-10.48-6.12-3.57-12.2-7.21-18.24-10.92-6.03-3.72-12.02-7.51-17.97-11.37-5.94-3.86-11.83-7.8-17.68-11.8-5.85-4.01-11.64-8.09-17.39-12.24-5.74-4.15-11.44-8.37-17.08-12.65-5.64-4.29-11.23-8.65-16.77-13.07-5.53-4.42-11.01-8.92-16.44-13.48-5.43-4.56-10.8-9.18-16.11-13.87-5.32-4.69-10.57-9.45-15.76-14.27-5.2-4.82-10.33-9.7-15.41-14.65-5.08-4.95-10.09-9.96-15.05-15.02-4.95-5.07-9.84-10.2-14.67-15.39-4.83-5.19-9.59-10.43-14.29-15.74-4.7-5.31-9.33-10.67-13.9-16.09-4.57-5.42-9.07-10.89-13.5-16.42-4.44-5.53-8.8-11.11-13.1-16.75-39.86-52.12-71.57-105.49-73.52-172.59,164.01,137.39,330.06,223.66,541.76,262.28,8.43,1.54,16.88,2.99,25.34,4.33,8.46,1.35,16.94,2.6,25.43,3.76,8.49,1.16,16.99,2.22,25.51,3.18,8.51.96,17.04,1.83,25.57,2.6,8.54.77,17.08,1.44,25.63,2.02,8.55.58,17.11,1.05,25.67,1.44,8.56.38,17.12.67,25.69.85,8.57.19,17.14.28,25.71.27,8.57,0,17.14-.11,25.7-.31,8.57-.2,17.13-.5,25.69-.9s17.12-.89,25.67-1.48c8.55-.59,17.09-1.28,25.62-2.06,8.53-.79,17.06-1.67,25.57-2.64,8.51-.98,17.01-2.05,25.5-3.22,8.49-1.17,16.96-2.44,25.43-3.8,8.46-1.36,16.9-2.82,25.33-4.37,8.43-1.56,16.84-3.2,25.23-4.95,8.39-1.75,16.76-3.59,25.11-5.52,8.35-1.93,16.68-3.96,24.98-6.09,8.3-2.12,16.58-4.34,24.83-6.65,8.25-2.31,16.48-4.71,24.67-7.21,8.2-2.5,16.36-5.09,24.5-7.77,8.14-2.68,16.24-5.46,24.32-8.33,8.08-2.87,16.12-5.83,24.13-8.88,8.01-3.05,15.98-6.19,23.92-9.42,7.94-3.23,15.83-6.55,23.7-9.96,7.86-3.41,15.68-6.91,23.47-10.5,7.78-3.59,15.52-7.26,23.22-11.03,7.7-3.76,15.35-7.61,22.96-11.55,7.61-3.94,15.18-7.96,22.7-12.07,7.52-4.11,14.99-8.3,22.42-12.58,7.42-4.28,14.8-8.64,22.13-13.09,58.31-34.73,109.95-77.68,165.6-116.1Z"/>
  <path class="cls-9" d="M945.15,3279.03c12.52,4.88,82.93,65.21,100.49,77.55,41.93,29.44,88.15,54.99,134,77.87,214.94,107.25,465.51,140.26,698.52,75.24,39.74-11.37,78.78-24.78,117.12-40.25,21.27-8.77,41.84-20.1,63.64-27.41-5.44,6.64-15.44,11.32-22.74,15.85-152.44,96.5-343.69,147.04-523.97,131.76-229.2-19.42-420.65-137.35-567.06-310.62Z"/>
  <path class="cls-15" d="M1517.82,1920.98c-27.28-1.13-55.94-6.84-82.8-11.8-140.59-25.93-283.01-79.99-366.82-202.88-1.86-2.72-3.68-5.46-5.47-8.23-1.79-2.77-3.55-5.55-5.27-8.36-1.72-2.81-3.41-5.63-5.06-8.48s-3.27-5.72-4.85-8.61c-1.58-2.89-3.13-5.8-4.64-8.72-1.51-2.93-2.99-5.87-4.42-8.83-1.44-2.96-2.85-5.94-4.21-8.94-1.37-3-2.7-6.01-3.99-9.04-1.29-3.03-2.55-6.07-3.77-9.13-1.22-3.06-2.4-6.13-3.55-9.22-1.15-3.09-2.25-6.19-3.32-9.31-1.07-3.12-2.1-6.24-3.1-9.38s-1.95-6.29-2.86-9.46c-.92-3.16-1.79-6.34-2.63-9.52-.84-3.18-1.64-6.38-2.4-9.59-.76-3.2-1.48-6.42-2.17-9.64-.68-3.22-1.33-6.45-1.93-9.69-.61-3.24-1.17-6.48-1.69-9.74-.53-3.25-1.01-6.51-1.46-9.77-.45-3.27-.85-6.53-1.22-9.81-.37-3.27-.69-6.55-.98-9.83-.29-3.28-.53-6.57-.74-9.85-.21-3.29-.38-6.58-.5-9.87-.13-3.29-.21-6.59-.26-9.88-.05-3.29-.05-6.59-.02-9.88.04-3.29.11-6.59.22-9.88.11-3.29.27-6.58.46-9.87.19-3.29.43-6.57.7-9.86.28-3.28.59-6.56.95-9.84.35-3.27.75-6.54,1.18-9.81.43-3.26.91-6.52,1.42-9.78.51-3.25,1.07-6.5,1.66-9.74.59-3.2,1.22-6.38,1.9-9.56.67-3.18,1.38-6.35,2.14-9.52.75-3.16,1.54-6.32,2.37-9.46.83-3.14,1.7-6.27,2.61-9.39.91-3.12,1.86-6.23,2.84-9.33.99-3.1,2.01-6.18,3.07-9.25,1.07-3.07,2.17-6.13,3.3-9.18,1.14-3.04,2.32-6.07,3.53-9.09,1.21-3.01,2.47-6.01,3.76-9,1.29-2.98,2.62-5.95,3.98-8.9,1.36-2.95,2.76-5.89,4.2-8.8,1.44-2.91,2.91-5.81,4.42-8.69,1.51-2.88,3.06-5.74,4.64-8.58,1.58-2.84,3.2-5.66,4.85-8.46,1.65-2.8,3.34-5.58,5.06-8.33,1.72-2.76,3.48-5.5,5.26-8.21,1.79-2.71,3.61-5.41,5.47-8.07,1.86-2.67,3.75-5.32,5.67-7.94,1.92-2.62,3.87-5.22,5.86-7.79,1.99-2.57,4.01-5.12,6.06-7.64,2.05-2.52,4.13-5.02,6.25-7.49,2.11-2.47,4.25-4.91,6.43-7.33,2.17-2.42,4.38-4.8,6.61-7.17,2.24-2.36,4.5-4.69,6.79-7,2.29-2.31,4.61-4.58,6.96-6.83,2.35-2.25,4.73-4.46,7.13-6.65,2.4-2.19,4.84-4.35,7.29-6.47,2.46-2.13,4.94-4.22,7.45-6.29,2.51-2.07,5.05-4.1,7.61-6.1,2.56-2,5.15-3.97,7.76-5.91,2.61-1.94,5.25-3.84,7.9-5.72,2.66-1.87,5.34-3.71,8.04-5.51,83.67-56.06,192.36-76.5,291-56.5,88.5,17.95,176.18,75.72,225.84,151.38,48.65,74.11,71.87,165.88,52.82,253.55-16.82,77.38-62.02,149.37-129.4,192.42-3.53,2.23-7.12,4.37-10.76,6.42-3.64,2.05-7.33,4.01-11.06,5.89-3.74,1.87-7.51,3.65-11.33,5.33-3.82,1.69-7.68,3.28-11.58,4.78-3.9,1.5-7.84,2.9-11.8,4.2-3.97,1.31-7.96,2.51-11.99,3.62-4.03,1.11-8.08,2.12-12.16,3.03-4.08.91-8.17,1.72-12.29,2.43-4.12.71-8.25,1.32-12.39,1.83-4.15.51-8.3.92-12.47,1.22-4.17.3-8.34.51-12.51.61-4.18.1-8.35.1-12.53,0-4.18-.1-8.35-.31-12.51-.62-4.17-.31-8.32-.72-12.47-1.23-4.14-.51-8.28-1.12-12.39-1.84-4.11-.71-8.21-1.53-12.29-2.44-3.45-.77-6.88-1.62-10.29-2.56-3.41-.94-6.79-1.95-10.15-3.06-3.36-1.1-6.68-2.29-9.99-3.56-3.3-1.27-6.56-2.61-9.79-4.04-3.23-1.43-6.43-2.93-9.59-4.52-3.16-1.59-6.28-3.25-9.35-4.99-3.07-1.74-6.11-3.55-9.09-5.44-2.99-1.89-5.92-3.85-8.82-5.89-2.89-2.03-5.73-4.14-8.51-6.31-2.79-2.17-5.52-4.42-8.19-6.73-2.68-2.31-5.29-4.68-7.85-7.12-2.56-2.44-5.06-4.94-7.49-7.5-2.43-2.56-4.8-5.18-7.11-7.86-2.31-2.68-4.55-5.41-6.72-8.2-2.17-2.79-4.27-5.63-6.3-8.52-2.03-2.89-3.99-5.84-5.87-8.82-1.68-2.61-3.29-5.25-4.84-7.94-1.55-2.69-3.03-5.41-4.44-8.17-1.41-2.76-2.76-5.55-4.03-8.38-1.28-2.83-2.48-5.68-3.61-8.57-1.13-2.89-2.2-5.8-3.19-8.74-.99-2.94-1.91-5.9-2.75-8.88-.84-2.99-1.61-5.99-2.31-9.01-.69-3.02-1.31-6.06-1.86-9.11-.55-3.05-1.01-6.12-1.4-9.19-.39-3.08-.71-6.16-.95-9.25-.24-3.09-.4-6.19-.49-9.29-.09-3.1-.1-6.2-.03-9.3.07-3.1.21-6.2.43-9.29.22-3.09.52-6.18.89-9.26.37-3.08.82-6.15,1.35-9.21.52-3.05,1.12-6.1,1.8-9.12.64-2.79,1.35-5.57,2.13-8.33.78-2.76,1.62-5.5,2.54-8.21.91-2.72,1.89-5.41,2.94-8.08,1.05-2.67,2.16-5.31,3.34-7.93,1.18-2.61,2.42-5.2,3.73-7.75,1.31-2.55,2.67-5.07,4.1-7.56,1.43-2.48,2.92-4.93,4.47-7.35,1.55-2.41,3.16-4.78,4.83-7.11,1.67-2.33,3.39-4.62,5.18-6.86,1.78-2.25,3.62-4.45,5.51-6.6,1.89-2.16,3.83-4.26,5.83-6.32,2-2.06,4.04-4.07,6.14-6.03,2.09-1.96,4.24-3.86,6.42-5.72,2.19-1.85,4.42-3.65,6.7-5.39,2.28-1.74,4.6-3.43,6.96-5.05,2.36-1.63,4.76-3.19,7.2-4.7,32.17-20.23,69.61-28.06,106.88-19.44,1.93.45,3.85.94,5.76,1.48,1.91.54,3.8,1.13,5.68,1.76,1.88.63,3.74,1.31,5.59,2.04,1.85.73,3.67,1.5,5.48,2.32,1.81.82,3.59,1.68,5.35,2.59,1.76.91,3.5,1.86,5.22,2.85,1.72.99,3.4,2.03,5.07,3.1,1.67,1.08,3.3,2.19,4.91,3.35,1.61,1.16,3.19,2.35,4.74,3.59,1.55,1.24,3.07,2.51,4.55,3.82,1.49,1.31,2.94,2.66,4.36,4.05,1.42,1.39,2.8,2.81,4.15,4.26,1.35,1.45,2.66,2.94,3.93,4.46,1.28,1.52,2.51,3.07,3.71,4.65,1.2,1.58,2.36,3.19,3.47,4.83,1.12,1.64,2.19,3.3,3.23,4.99,1,1.62,1.96,3.27,2.88,4.94.92,1.67,1.79,3.36,2.62,5.08.83,1.72,1.62,3.45,2.36,5.21.74,1.75,1.44,3.53,2.09,5.32.65,1.79,1.25,3.6,1.81,5.42.56,1.82,1.07,3.66,1.53,5.5.46,1.85.88,3.71,1.25,5.58.37,1.87.69,3.75.96,5.63.27,1.89.5,3.78.68,5.68.17,1.9.3,3.8.38,5.7.08,1.9.11,3.81.09,5.72-.02,1.91-.09,3.81-.2,5.71-.12,1.9-.28,3.8-.5,5.69-.21,1.89-.48,3.78-.79,5.66-.31,1.88-.67,3.75-1.07,5.62-.41,1.86-.86,3.71-1.36,5.55-6.99,25.77-21.77,45.7-44.98,58.86-14.54,8.25-33.28,13.62-49.88,8.96,11.81-2.61,23.51-5.57,34.36-11.08,1.23-.61,2.45-1.26,3.64-1.93,1.2-.68,2.38-1.38,3.54-2.12,1.16-.73,2.31-1.5,3.43-2.29,1.13-.79,2.23-1.61,3.31-2.46,1.08-.85,2.15-1.72,3.19-2.62,1.04-.9,2.05-1.83,3.05-2.78.99-.95,1.96-1.93,2.91-2.93.94-1,1.86-2.03,2.75-3.08s1.76-2.12,2.59-3.21c.84-1.09,1.65-2.21,2.43-3.34.78-1.13,1.54-2.29,2.26-3.46.72-1.17,1.42-2.36,2.08-3.56.66-1.21,1.29-2.43,1.9-3.66.6-1.24,1.17-2.49,1.71-3.76.54-1.27,1.05-2.55,1.52-3.83.47-1.29.91-2.6,1.32-3.91.46-1.43.89-2.87,1.29-4.32.4-1.45.75-2.91,1.07-4.38.32-1.47.61-2.95.85-4.43s.46-2.97.64-4.47c.17-1.49.31-2.99.42-4.49.1-1.5.16-3.01.19-4.51.03-1.51.02-3.01-.03-4.51-.05-1.51-.13-3.01-.25-4.51-.12-1.5-.28-3-.47-4.49-.2-1.49-.43-2.98-.7-4.46s-.57-2.95-.91-4.42c-.34-1.47-.72-2.92-1.13-4.37-.41-1.45-.86-2.88-1.34-4.31-.48-1.42-1-2.84-1.56-4.23-.55-1.4-1.14-2.78-1.76-4.15-.62-1.37-1.28-2.72-1.97-4.06-.67-1.29-1.37-2.56-2.1-3.81-.73-1.25-1.5-2.49-2.3-3.7s-1.63-2.4-2.49-3.57c-.86-1.17-1.75-2.32-2.66-3.44-.92-1.12-1.87-2.22-2.85-3.29-.97-1.07-1.98-2.12-3.01-3.14-1.03-1.02-2.09-2.01-3.17-2.98-1.08-.97-2.19-1.9-3.32-2.81-1.13-.91-2.29-1.78-3.47-2.63-1.18-.84-2.38-1.66-3.6-2.44-1.22-.78-2.46-1.53-3.72-2.25-1.26-.72-2.54-1.4-3.83-2.05-1.3-.65-2.61-1.27-3.94-1.85-1.33-.58-2.67-1.13-4.03-1.64-1.36-.51-2.73-.99-4.11-1.43-1.38-.44-2.78-.84-4.18-1.21-27.26-7.35-56.79-2.52-80.96,11.76-23.8,14.06-41.65,34.9-48.44,62.15-8.01,32.12-1.22,68.07,16.08,96.05,21.47,34.73,58.47,60.61,98.3,69.33,2.42.52,4.85.98,7.3,1.38,2.44.4,4.89.74,7.35,1.02,2.46.28,4.93.5,7.4.66,2.47.16,4.95.26,7.43.29,2.48.04,4.95.01,7.43-.07,2.47-.08,4.95-.23,7.42-.44,2.47-.2,4.93-.47,7.38-.8,2.46-.33,4.9-.71,7.34-1.16,2.44-.45,4.86-.95,7.27-1.52,2.41-.56,4.81-1.19,7.19-1.88,2.38-.68,4.75-1.43,7.09-2.22s4.67-1.66,6.97-2.57c2.3-.91,4.58-1.88,6.84-2.91,2.26-1.03,4.48-2.11,6.68-3.25,2.2-1.13,4.37-2.32,6.52-3.57,2.14-1.24,4.26-2.54,6.33-3.88,41.94-27.34,70.57-72.41,80.43-121.22,11.08-54.87-6.07-112.1-36.84-157.73-2.2-3.31-4.48-6.57-6.84-9.77-2.36-3.2-4.8-6.33-7.32-9.41-2.52-3.07-5.12-6.08-7.79-9.03-2.67-2.94-5.42-5.82-8.23-8.62-2.82-2.81-5.7-5.54-8.66-8.2-2.95-2.66-5.97-5.24-9.06-7.75-3.09-2.51-6.23-4.94-9.43-7.29-3.21-2.35-6.47-4.62-9.8-6.8-3.32-2.19-6.69-4.29-10.12-6.3-3.43-2.02-6.9-3.95-10.43-5.79-3.53-1.84-7.09-3.59-10.7-5.25-3.61-1.66-7.27-3.23-10.96-4.71-3.69-1.47-7.42-2.86-11.18-4.15-3.76-1.29-7.55-2.48-11.37-3.57-3.82-1.1-7.67-2.1-11.54-3-3.87-.9-7.76-1.71-11.67-2.42-67.82-12.9-138.02,3.96-194.77,42.72-3.62,2.49-7.17,5.07-10.66,7.74-3.49,2.67-6.91,5.42-10.26,8.26-3.35,2.84-6.63,5.75-9.84,8.75-3.21,3-6.34,6.07-9.4,9.23-3.06,3.15-6.03,6.38-8.93,9.69-2.9,3.3-5.71,6.67-8.44,10.11-2.73,3.44-5.37,6.95-7.93,10.52-2.55,3.57-5.02,7.2-7.39,10.9-2.38,3.69-4.66,7.44-6.85,11.25s-4.28,7.67-6.28,11.58c-2,3.91-3.9,7.87-5.7,11.87-1.8,4-3.51,8.05-5.1,12.14-1.6,4.09-3.1,8.22-4.5,12.38-1.39,4.16-2.69,8.36-3.88,12.59-1.19,4.23-2.27,8.48-3.25,12.76-.98,4.28-1.85,8.58-2.61,12.91-15.49,83.46,5.89,169.4,54.15,238.6,77.75,111.5,192.39,155.37,320.99,178.3,1.16.61,2.3,1.25,3.48,1.83,26.6,13.27,116.48,25.1,151.07,32.61,91.88,19.95,180.02,48.55,264.22,90.5,14.83,7.39,44.79,18.88,52.72,33.07,3.69,6.59-6.02,23.16-9.15,29.66-2.1,4.3-4.27,8.56-6.52,12.78l-3-1.96c-30.6-19.81-63.47-34.1-96.26-49.62-18.13-8.58-35.28-19.14-53.76-27.02-91.37-38.95-194.35-60.59-293.05-69.26l-2.89,2.2Z"/>
  <path class="cls-2" d="M1487.34,2790.85c2.13-.09,4.27-.15,6.4-.19,139.35-2.7,280.3-2.79,419.45,4.93,152.95,8.82,305.11,25.05,456.48,48.7,76.3,11.4,145.05,19.95,221.01,36.24,34.51,7.39,81.2,2.9,107.55,29.61,15.54,15.76,21.34,37.13,21.55,58.77.26,26.77-4.74,59.61-24.69,79-18.17,17.65-45.19,21.7-69.54,20.62-40.72-1.81-81.83-13.55-121.79-21.23-40.57-7.8-81.48-13.18-122.42-18.62-128.87-17.15-257.99-35.23-387.46-47.23-95.78-8.88-191.32-13.38-287.44-16.72-248.35-3.53-497.32,3.27-743.33,40.17-77.43,11.87-154.57,25.39-231.43,40.55-47.95,9.8-97.17,23.7-145.59,29.81-28.01,3.54-50.75.12-73.41-18.06-19.39-15.56-32.26-37.61-34.56-62.55-2.34-25.45,6.13-52.18,23.26-71.22,33.43-37.14,133.75-43.92,182.85-52.54,162.09-28.77,325.14-50.14,489.17-64.09,104.53-8.41,209.16-12.11,313.94-15.94Z"/>
  <path class="cls-10" d="M1371.48,536.72c-3.96-25.88-.3-53.44,3.52-79.14.83-5.85,1.75-11.69,2.76-17.51,1.01-5.82,2.12-11.63,3.31-17.42,1.19-5.79,2.47-11.56,3.85-17.31,1.37-5.75,2.83-11.48,4.38-17.18,1.55-5.71,3.19-11.38,4.91-17.04,1.72-5.65,3.54-11.28,5.44-16.88,1.9-5.6,3.89-11.16,5.96-16.7,2.08-5.54,4.23-11.04,6.48-16.51,2.24-5.47,4.57-10.9,6.99-16.3,2.41-5.4,4.91-10.76,7.49-16.07s5.24-10.6,7.98-15.83c2.74-5.24,5.57-10.43,8.47-15.58,2.9-5.15,5.89-10.25,8.95-15.31,3.06-5.06,6.2-10.07,9.42-15.02s6.51-9.87,9.88-14.72c3.37-4.86,6.81-9.66,10.33-14.41,63.69-86.4,147.03-145.95,239.47-197.79-76.35,95.55-128.91,206.18-115.31,331.58,10.91,100.65,58.27,178.58,119.98,255.78-23.43-93.45-34.42-186.32,17.24-272.98,30.3-50.85,72.46-85.18,120.86-117.81-3.15,4.18-6.2,8.43-9.15,12.75-2.94,4.32-5.78,8.72-8.51,13.18-2.73,4.47-5.35,8.99-7.85,13.58-2.51,4.59-4.9,9.24-7.18,13.95-2.28,4.71-4.44,9.48-6.49,14.29-2.05,4.82-3.97,9.68-5.78,14.59-1.81,4.91-3.49,9.86-5.06,14.85-1.57,4.99-3.01,10.02-4.32,15.09s-2.51,10.16-3.58,15.28c-1.07,5.12-2.01,10.27-2.83,15.44-.82,5.17-1.51,10.35-2.07,15.56-.56,5.2-.99,10.41-1.3,15.64-.31,5.22-.48,10.45-.53,15.68-.05,5.23.03,10.46.24,15.69.21,5.23.54,10.45,1,15.66.46,5.21,1.05,10.41,1.77,15.59,17.6,124.83,100.58,215.94,162.63,319.93,119.94,201.04,55.29,431.1-76.19,607.43-18.59,24.92-38.36,50.77-59.9,73.16,3.47-8.89,6.43-19.25,11.31-27.4,10.13-30.82,17.09-60.32,15.66-92.98-1.9-43.39-14.17-86.71-31.94-126.17-65.39-145.2-191.58-203.73-302.15-306.07-99.91-92.47-144.82-209.96-150.14-344.57Z"/>
  <path class="cls-12" d="M1508.28,297.1c1.99,17.07-7.65,41.94-10.97,59.23-1.07,5.71-2,11.45-2.78,17.21-.79,5.76-1.43,11.54-1.94,17.33-.51,5.79-.87,11.59-1.09,17.4s-.3,11.62-.23,17.44c.07,5.81.27,11.62.62,17.43.35,5.8.84,11.59,1.48,17.37.63,5.78,1.41,11.54,2.33,17.28.92,5.74,1.97,11.46,3.17,17.15,30.98,148.02,148.27,235.55,262.78,319.02,7.07,5.15,25.67,15.88,28.39,23.78l-3.81-.32c-27.53-14.33-57.06-24.18-85.83-35.66-84.16-33.59-153.4-96.91-189.11-180.93-1.33-3.19-2.61-6.4-3.86-9.62-1.25-3.22-2.46-6.46-3.63-9.72-1.17-3.25-2.3-6.52-3.4-9.8-1.09-3.28-2.15-6.57-3.16-9.87-1.01-3.31-1.99-6.62-2.92-9.95-.94-3.33-1.83-6.67-2.68-10.02-.85-3.35-1.67-6.71-2.44-10.08-.77-3.37-1.5-6.75-2.2-10.14-.69-3.39-1.34-6.78-1.95-10.19-.61-3.4-1.18-6.81-1.71-10.23-.53-3.42-1.01-6.84-1.46-10.27-.45-3.43-.85-6.86-1.21-10.3-.36-3.44-.68-6.88-.97-10.33-.28-3.44-.52-6.89-.72-10.35-.2-3.45-.36-6.9-.47-10.36-.12-3.45-.19-6.91-.22-10.37-.03-3.46-.02-6.91.02-10.37.05-3.46.15-6.91.28-10.37.14-3.45.31-6.9.53-10.36.22-3.45.47-6.9.77-10.34.3-3.44.64-6.88,1.03-10.32s.81-6.87,1.27-10.29c.46-3.43.97-6.84,1.51-10.26.55-3.41,1.14-6.82,1.76-10.22.63-3.4,1.3-6.79,2-10.17.71-3.38,1.46-6.76,2.25-10.12.79-3.36,1.62-6.72,2.49-10.06.87-3.35,1.78-6.68,2.73-10,.95-3.32,1.94-6.64,2.98-9.94,1.03-3.3,2.1-6.59,3.21-9.86,1.11-3.27,2.26-6.53,3.44-9.78,1.19-3.25,2.42-6.48,3.68-9.7Z"/>
  <path class="cls-16" d="M1371.48,536.72l2.11-.69c6.49,12.04,9.52,27.23,13.78,40.29,4.67,14.32,10.77,28.11,17.47,41.58,50.01,100.56,143.12,170.62,249.48,202.3,44.03,13.11,82.07,12.45,123.59,22.42,50.51,12.12,89.84,56.15,113.67,100.14,53.4,98.58,50.12,227.44,18.14,332.13-9.31,30.49-39.3,114.35-67.72,130.68-.63.36-1.31.62-1.96.93,10.13-30.82,17.09-60.32,15.66-92.98-1.9-43.39-14.17-86.71-31.94-126.17-65.39-145.2-191.58-203.73-302.15-306.07-99.91-92.47-144.82-209.96-150.14-344.57Z"/>
  <path class="cls-7" d="M2283.47,2168.24c14.54,9.41,28.28,18.69,39.37,32.27,23.85,29.21,16.95,67.64,12.83,102.15-17.44,146.28-60.26,282.11-155.48,397.18-19.7,23.81-40.78,48.39-65.1,67.5-57.17-10.59-118.61-13.19-176.69-17.69-189.62-14.72-382.83-20.22-572.76-8.61-45.44,5.82-92.37,4.04-138.16,8.87-9.85,1.04-22.14,1.2-31.41,4.1-38.19,3.26-76.23,8.13-114.45,11.22-45.03-31.56-94.3-93.13-124.12-138.78-48.71-74.58-105.38-208.2-84.44-299.32,8.3-36.09,37.02-54.55,66.38-72.93-15.8,15.27-31.2,31.81-38.17,53.16-5.44,16.69-6.15,36.55,2.81,52.19,3.36,5.87,7.8,11.22,13.57,14.84,20.16,12.65,73.97,26.67,99.22,33.66,283.77,78.59,717.08,65.56,1005.89-.39,72.47-16.55,151.17-37.22,216.06-74.32,30.09-17.2,63.9-40.54,72.68-76.23,8.23-33.46-11.25-61.91-28.02-88.86Z"/>
  <path class="cls-9" d="M1533.71,2507.43c28.76-3.13,57.9-2.77,86.78-4.35,39.73-2.53,79.38-6.06,118.93-10.59,38.16-4.46,76.22-9.57,114.2-15.33,14.16-2.15,30.8-7.92,44.84-7.34-39.3,13.23-79.87,21.89-119.97,32.23-39.01,10.29-77.72,21.63-116.12,34-26.05,8.4-51.36,19.74-76.49,30.56-79.19,34.11-163.99,73.89-216.34,145.02-4.35,5.91-10.94,13.21-13.91,19.83-1.13,2.51-1.06,3.06-1.38,5.44l2.11,2.93,9.26,1.2c-45.44,5.82-92.37,4.04-138.16,8.87-9.85,1.04-22.14,1.2-31.41,4.1-12.4-14.46-35.65-26.42-51.22-38.06-22.85-17.08-43.6-35.35-63.53-55.74,151.55-2.98,227.47-61.84,359.58-114.41,41.91-16.68,85.12-28.1,129.19-37.3l-36.37-1.05Z"/>
  <path class="cls-12" d="M925.08,2415.33c177.88,96.88,411.8,93.16,608.63,92.1l36.37,1.05c-44.07,9.2-87.28,20.62-129.19,37.3-132.11,52.58-208.03,111.44-359.58,114.41-76.04-64.31-121.61-153.35-156.23-244.87Z"/>
  <text class="cls-8" transform="translate(1077 3289.93)"><tspan x="0" y="0">KHANA</tspan></text>
</svg>